<svg xmlns="http://www.w3.org/2000/svg" xmlns:xlink="http://www.w3.org/1999/xlink" width="500" zoomAndPan="magnify" viewBox="0 0 375 374.999991" height="500" preserveAspectRatio="xMidYMid meet" version="1.0"><defs><g/><clipPath id="dbc459a819"><rect x="0" width="180" y="0" height="126"/></clipPath><clipPath id="c6d112cbd9"><rect x="0" width="62" y="0" height="126"/></clipPath><clipPath id="f8fad5ee93"><rect x="0" width="59" y="0" height="126"/></clipPath></defs><g transform="matrix(1, 0, 0, 1, 152, 124)"><g clip-path="url(#dbc459a819)"><g fill="#00f5a0" fill-opacity="1"><g transform="translate(0.47454, 93.935035)"><g><path d="M 26.203125 -43.265625 L 14.921875 -43.265625 L 14.921875 0 L 8.703125 0 L 8.703125 -43.265625 L 1.953125 -43.265625 L 1.953125 -48.515625 L 8.703125 -48.515625 L 8.703125 -51.890625 C 8.703125 -57.160156 10.050781 -61.035156 12.75 -63.515625 C 15.445312 -66.003906 19.816406 -67.25 25.859375 -67.25 L 25.859375 -61.921875 C 21.828125 -61.921875 18.992188 -61.148438 17.359375 -59.609375 C 15.734375 -58.066406 14.921875 -55.492188 14.921875 -51.890625 L 14.921875 -48.515625 L 26.203125 -48.515625 Z M 26.203125 -43.265625 "/></g></g></g><g fill="#00f5a0" fill-opacity="1"><g transform="translate(29.348358, 93.935035)"><g><path d="M 13.328125 -65.75 L 13.328125 0 L 7.109375 0 L 7.109375 -65.75 Z M 13.328125 -65.75 "/></g></g></g><g fill="#00f5a0" fill-opacity="1"><g transform="translate(49.693294, 93.935035)"><g><path d="M 28.34375 0.703125 C 23.78125 0.703125 19.675781 -0.316406 16.03125 -2.359375 C 12.394531 -4.398438 9.523438 -7.300781 7.421875 -11.0625 C 5.316406 -14.820312 4.265625 -19.21875 4.265625 -24.25 C 4.265625 -29.289062 5.328125 -33.691406 7.453125 -37.453125 C 9.585938 -41.210938 12.488281 -44.113281 16.15625 -46.15625 C 19.832031 -48.195312 23.953125 -49.21875 28.515625 -49.21875 C 33.078125 -49.21875 37.207031 -48.195312 40.90625 -46.15625 C 44.613281 -44.113281 47.515625 -41.210938 49.609375 -37.453125 C 51.710938 -33.691406 52.765625 -29.289062 52.765625 -24.25 C 52.765625 -19.28125 51.695312 -14.898438 49.5625 -11.109375 C 47.4375 -7.316406 44.507812 -4.398438 40.78125 -2.359375 C 37.050781 -0.316406 32.90625 0.703125 28.34375 0.703125 Z M 28.34375 -4.703125 C 31.539062 -4.703125 34.5 -5.425781 37.21875 -6.875 C 39.945312 -8.332031 42.15625 -10.523438 43.84375 -13.453125 C 45.53125 -16.390625 46.375 -19.988281 46.375 -24.25 C 46.375 -28.519531 45.546875 -32.117188 43.890625 -35.046875 C 42.234375 -37.984375 40.039062 -40.175781 37.3125 -41.625 C 34.59375 -43.070312 31.632812 -43.796875 28.4375 -43.796875 C 25.226562 -43.796875 22.257812 -43.070312 19.53125 -41.625 C 16.8125 -40.175781 14.640625 -37.984375 13.015625 -35.046875 C 11.390625 -32.117188 10.578125 -28.519531 10.578125 -24.25 C 10.578125 -19.988281 11.390625 -16.390625 13.015625 -13.453125 C 14.640625 -10.523438 16.800781 -8.332031 19.5 -6.875 C 22.195312 -5.425781 25.144531 -4.703125 28.34375 -4.703125 Z M 28.34375 -4.703125 "/></g></g></g><g fill="#00f5a0" fill-opacity="1"><g transform="translate(106.730195, 93.935035)"><g><path d="M 71.078125 -48.515625 L 55.875 0 L 49.65625 0 L 36.25 -40.6875 L 22.828125 0 L 16.53125 0 L 1.328125 -48.515625 L 7.640625 -48.515625 L 19.71875 -6.3125 L 33.3125 -48.515625 L 39.53125 -48.515625 L 52.953125 -6.21875 L 64.9375 -48.515625 Z M 71.078125 -48.515625 "/></g></g></g></g></g><path stroke-linecap="butt" transform="matrix(0.225468, -0.715307, 0.715307, 0.225468, 308.350679, 215.192724)" fill="none" stroke-linejoin="miter" d="M 0.000681974 4.500837 L 96.216093 4.49791 " stroke="#00f5a0" stroke-width="9" stroke-opacity="1" stroke-miterlimit="4"/><path stroke-linecap="round" transform="matrix(0.225468, -0.715307, 0.715307, 0.225468, 308.350679, 215.192724)" fill="none" stroke-linejoin="round" d="M 78.215773 -9.001673 L 96.216093 4.49791 L 78.214216 18.003175 " stroke="#00f5a0" stroke-width="9" stroke-opacity="1" stroke-miterlimit="4"/><g transform="matrix(1, 0, 0, 1, 30, 124)"><g clip-path="url(#c6d112cbd9)"><g fill="#6e44ff" fill-opacity="1"><g transform="translate(1.144587, 93.935035)"><g><path d="M 35.71875 -50.109375 C 41.519531 -50.109375 46.148438 -48.226562 49.609375 -44.46875 C 53.078125 -40.707031 54.8125 -35.539062 54.8125 -28.96875 L 54.8125 0 L 39.71875 0 L 39.71875 -26.921875 C 39.71875 -30.234375 38.859375 -32.804688 37.140625 -34.640625 C 35.421875 -36.484375 33.109375 -37.40625 30.203125 -37.40625 C 27.304688 -37.40625 25 -36.484375 23.28125 -34.640625 C 21.5625 -32.804688 20.703125 -30.234375 20.703125 -26.921875 L 20.703125 0 L 5.515625 0 L 5.515625 -49.578125 L 20.703125 -49.578125 L 20.703125 -43 C 22.242188 -45.1875 24.316406 -46.914062 26.921875 -48.1875 C 29.523438 -49.46875 32.457031 -50.109375 35.71875 -50.109375 Z M 35.71875 -50.109375 "/></g></g></g></g></g><g transform="matrix(1, 0, 0, 1, 90, 124)"><g clip-path="url(#f8fad5ee93)"><g fill="#6e44ff" fill-opacity="1"><g transform="translate(1.029615, 93.935035)"><g><path d="M 14.65625 -34.828125 C 9.09375 -37.785156 6.3125 -42.4375 6.3125 -48.78125 C 6.3125 -51.976562 7.140625 -54.894531 8.796875 -57.53125 C 10.453125 -60.164062 12.96875 -62.265625 16.34375 -63.828125 C 19.71875 -65.398438 23.863281 -66.1875 28.78125 -66.1875 C 33.695312 -66.1875 37.828125 -65.398438 41.171875 -63.828125 C 44.523438 -62.265625 47.03125 -60.164062 48.6875 -57.53125 C 50.34375 -54.894531 51.171875 -51.976562 51.171875 -48.78125 C 51.171875 -45.582031 50.414062 -42.796875 48.90625 -40.421875 C 47.394531 -38.054688 45.367188 -36.191406 42.828125 -34.828125 C 46.023438 -33.285156 48.476562 -31.164062 50.1875 -28.46875 C 51.90625 -25.78125 52.765625 -22.628906 52.765625 -19.015625 C 52.765625 -14.804688 51.695312 -11.175781 49.5625 -8.125 C 47.4375 -5.070312 44.550781 -2.742188 40.90625 -1.140625 C 37.269531 0.453125 33.226562 1.25 28.78125 1.25 C 24.34375 1.25 20.300781 0.453125 16.65625 -1.140625 C 13.007812 -2.742188 10.117188 -5.070312 7.984375 -8.125 C 5.859375 -11.175781 4.796875 -14.804688 4.796875 -19.015625 C 4.796875 -22.679688 5.65625 -25.863281 7.375 -28.5625 C 9.09375 -31.257812 11.519531 -33.347656 14.65625 -34.828125 Z M 36.421875 -46.46875 C 36.421875 -48.894531 35.722656 -50.773438 34.328125 -52.109375 C 32.941406 -53.441406 31.09375 -54.109375 28.78125 -54.109375 C 26.476562 -54.109375 24.628906 -53.425781 23.234375 -52.0625 C 21.835938 -50.695312 21.140625 -48.800781 21.140625 -46.375 C 21.140625 -44.0625 21.847656 -42.238281 23.265625 -40.90625 C 24.691406 -39.570312 26.53125 -38.90625 28.78125 -38.90625 C 31.03125 -38.90625 32.863281 -39.585938 34.28125 -40.953125 C 35.707031 -42.316406 36.421875 -44.15625 36.421875 -46.46875 Z M 28.78125 -28.25 C 26 -28.25 23.75 -27.492188 22.03125 -25.984375 C 20.3125 -24.472656 19.453125 -22.382812 19.453125 -19.71875 C 19.453125 -17.226562 20.296875 -15.179688 21.984375 -13.578125 C 23.671875 -11.984375 25.9375 -11.1875 28.78125 -11.1875 C 31.625 -11.1875 33.859375 -11.984375 35.484375 -13.578125 C 37.117188 -15.179688 37.9375 -17.226562 37.9375 -19.71875 C 37.9375 -22.320312 37.09375 -24.394531 35.40625 -25.9375 C 33.71875 -27.476562 31.507812 -28.25 28.78125 -28.25 Z M 28.78125 -28.25 "/></g></g></g></g></g></svg>