<svg xmlns="http://www.w3.org/2000/svg" xmlns:xlink="http://www.w3.org/1999/xlink" width="500" zoomAndPan="magnify" viewBox="0 0 375 374.999991" height="500" preserveAspectRatio="xMidYMid meet" version="1.0"><path fill="#00f5a0" d="M 175.75 89.074219 L 181.238281 94.5625 Z M 89.074219 175.75 L 83.589844 170.265625 Z M 89.074219 197.695312 L 94.5625 192.210938 Z M 175.75 284.371094 L 170.265625 289.859375 Z M 197.695312 284.371094 L 192.210938 278.886719 Z M 284.371094 197.695312 L 289.859375 203.183594 Z M 284.371094 175.75 L 278.886719 181.238281 Z M 197.695312 89.074219 L 203.183594 83.589844 Z M 170.265625 83.589844 L 83.589844 170.265625 L 94.5625 181.238281 L 181.238281 94.5625 Z M 83.589844 203.183594 L 170.265625 289.859375 L 181.238281 278.886719 L 94.5625 192.210938 Z M 203.183594 289.859375 L 289.859375 203.183594 L 278.886719 192.210938 L 192.210938 278.886719 Z M 289.859375 170.265625 L 203.183594 83.589844 L 192.210938 94.5625 L 278.886719 181.238281 Z M 289.859375 203.183594 C 298.949219 194.09375 298.949219 179.355469 289.859375 170.265625 L 278.886719 181.238281 C 281.917969 184.265625 281.917969 189.179688 278.886719 192.210938 Z M 170.265625 289.859375 C 179.355469 298.949219 194.09375 298.949219 203.183594 289.859375 L 192.210938 278.886719 C 189.179688 281.917969 184.265625 281.917969 181.238281 278.886719 Z M 83.589844 170.265625 C 74.5 179.355469 74.5 194.09375 83.589844 203.183594 L 94.5625 192.210938 C 91.53125 189.179688 91.53125 184.265625 94.5625 181.238281 Z M 181.238281 94.5625 C 184.265625 91.53125 189.179688 91.53125 192.210938 94.5625 L 203.183594 83.589844 C 194.09375 74.5 179.355469 74.5 170.265625 83.589844 Z M 150.203125 114.625 L 165.71875 130.140625 L 176.691406 119.167969 L 161.175781 103.652344 Z M 186.722656 147.929688 C 182.4375 147.929688 178.964844 144.457031 178.964844 140.171875 L 163.449219 140.171875 C 163.449219 153.027344 173.867188 163.449219 186.722656 163.449219 Z M 194.480469 140.171875 C 194.480469 144.457031 191.007812 147.929688 186.722656 147.929688 L 186.722656 163.449219 C 199.578125 163.449219 210 153.027344 210 140.171875 Z M 186.722656 132.414062 C 191.007812 132.414062 194.480469 135.886719 194.480469 140.171875 L 210 140.171875 C 210 127.316406 199.578125 116.894531 186.722656 116.894531 Z M 186.722656 116.894531 C 173.867188 116.894531 163.449219 127.316406 163.449219 140.171875 L 178.964844 140.171875 C 178.964844 135.886719 182.4375 132.414062 186.722656 132.414062 Z M 196.753906 161.175781 L 220.03125 184.449219 L 231.003906 173.480469 L 207.726562 150.203125 Z M 233.277344 194.480469 C 228.988281 194.480469 225.515625 191.007812 225.515625 186.722656 L 210 186.722656 C 210 199.578125 220.421875 210 233.277344 210 Z M 241.035156 186.722656 C 241.035156 191.007812 237.558594 194.480469 233.277344 194.480469 L 233.277344 210 C 246.128906 210 256.550781 199.578125 256.550781 186.722656 Z M 233.277344 178.964844 C 237.558594 178.964844 241.035156 182.4375 241.035156 186.722656 L 256.550781 186.722656 C 256.550781 173.867188 246.128906 163.449219 233.277344 163.449219 Z M 233.277344 163.449219 C 220.421875 163.449219 210 173.867188 210 186.722656 L 225.515625 186.722656 C 225.515625 182.4375 228.988281 178.964844 233.277344 178.964844 Z M 178.964844 155.6875 L 178.964844 217.757812 L 194.480469 217.757812 L 194.480469 155.6875 Z M 186.722656 241.035156 C 182.4375 241.035156 178.964844 237.558594 178.964844 233.277344 L 163.449219 233.277344 C 163.449219 246.128906 173.867188 256.550781 186.722656 256.550781 Z M 194.480469 233.277344 C 194.480469 237.558594 191.007812 241.035156 186.722656 241.035156 L 186.722656 256.550781 C 199.578125 256.550781 210 246.128906 210 233.277344 Z M 186.722656 225.515625 C 191.007812 225.515625 194.480469 228.988281 194.480469 233.277344 L 210 233.277344 C 210 220.421875 199.578125 210 186.722656 210 Z M 186.722656 210 C 173.867188 210 163.449219 220.421875 163.449219 233.277344 L 178.964844 233.277344 C 178.964844 228.988281 182.4375 225.515625 186.722656 225.515625 Z M 186.722656 210 " fill-opacity="1" fill-rule="nonzero"/></svg>